<svg xmlns="http://www.w3.org/2000/svg" width="1029" height="562" viewBox="0 0 1029 562">
<rect width="1029" height="562" rx="12" fill="#1c1d22"/>
<circle cx="22" cy="20" r="6" fill="#ff5f57"/><circle cx="42" cy="20" r="6" fill="#febc2e"/><circle cx="62" cy="20" r="6" fill="#28c840"/>
<text x="514" y="25" fill="#7d8190" font-family="SFMono-Regular, Menlo, Consolas, 'DejaVu Sans Mono', monospace" font-size="13" text-anchor="middle">gitgraph learn</text>
<g fill="none" stroke-width="2" stroke-linecap="round">
<path d="M77.7 427.0L73.0 427.0M77.7 427.0L82.4 427.0" stroke="#5fafff"/>
<path d="M96.5 427.0L91.8 427.0M96.5 427.0L101.2 427.0" stroke="#5fafff"/>
<path d="M105.9 427.0L101.2 427.0M105.9 427.0L110.6 427.0" stroke="#5fafff"/>
<path d="M115.3 427.0L110.6 427.0M115.3 427.0L120.0 427.0" stroke="#5fafff"/>
<path d="M124.7 427.0L120.0 427.0M124.7 427.0L129.4 427.0" stroke="#5fafff"/>
<path d="M134.1 427.0L129.4 427.0M134.1 427.0L138.8 427.0" stroke="#5fafff"/>
<path d="M87.1 453.0L87.1 427.0M87.1 453.0L91.8 453.0" stroke="#d787d7"/>
<path d="M96.5 453.0L91.8 453.0M96.5 453.0L101.2 453.0" stroke="#d787d7"/>
<path d="M115.3 453.0L110.6 453.0M115.3 453.0L120.0 453.0" stroke="#d787d7"/>
</g>
<circle cx="68.3" cy="427.0" r="4.6" fill="#5fafff"/>
<circle cx="87.1" cy="427.0" r="4.6" fill="#5fafff"/>
<circle cx="143.5" cy="427.0" r="4.6" fill="#5fafff"/>
<circle cx="105.9" cy="453.0" r="4.6" fill="#d787d7"/>
<circle cx="124.7" cy="453.0" r="7" fill="#1c1d22" stroke="#ffd787" stroke-width="2"/><circle cx="124.7" cy="453.0" r="3.6" fill="#ffd787"/>
<g font-family="SFMono-Regular, Menlo, Consolas, 'DejaVu Sans Mono', monospace" font-size="15.5" text-anchor="middle">
<text x="30.7" y="68.0" fill="#c9ccd3" font-weight="700">S</text>
<text x="40.1" y="68.0" fill="#c9ccd3" font-weight="700">t</text>
<text x="49.5" y="68.0" fill="#c9ccd3" font-weight="700">e</text>
<text x="58.9" y="68.0" fill="#c9ccd3" font-weight="700">p</text>
<text x="77.7" y="68.0" fill="#c9ccd3" font-weight="700">7</text>
<text x="87.1" y="68.0" fill="#c9ccd3" font-weight="700">/</text>
<text x="96.5" y="68.0" fill="#c9ccd3" font-weight="700">1</text>
<text x="105.9" y="68.0" fill="#c9ccd3" font-weight="700">7</text>
<text x="134.1" y="68.0" fill="#c9ccd3" font-weight="700">A</text>
<text x="152.9" y="68.0" fill="#c9ccd3" font-weight="700">c</text>
<text x="162.3" y="68.0" fill="#c9ccd3" font-weight="700">h</text>
<text x="171.7" y="68.0" fill="#c9ccd3" font-weight="700">a</text>
<text x="181.1" y="68.0" fill="#c9ccd3" font-weight="700">n</text>
<text x="190.5" y="68.0" fill="#c9ccd3" font-weight="700">g</text>
<text x="199.9" y="68.0" fill="#c9ccd3" font-weight="700">e</text>
<text x="218.7" y="68.0" fill="#c9ccd3" font-weight="700">y</text>
<text x="228.1" y="68.0" fill="#c9ccd3" font-weight="700">o</text>
<text x="237.5" y="68.0" fill="#c9ccd3" font-weight="700">u</text>
<text x="256.3" y="68.0" fill="#c9ccd3" font-weight="700">h</text>
<text x="265.7" y="68.0" fill="#c9ccd3" font-weight="700">a</text>
<text x="275.1" y="68.0" fill="#c9ccd3" font-weight="700">v</text>
<text x="284.5" y="68.0" fill="#c9ccd3" font-weight="700">e</text>
<text x="293.9" y="68.0" fill="#c9ccd3" font-weight="700">n</text>
<text x="303.3" y="68.0" fill="#c9ccd3" font-weight="700">&#x27;</text>
<text x="312.7" y="68.0" fill="#c9ccd3" font-weight="700">t</text>
<text x="331.5" y="68.0" fill="#c9ccd3" font-weight="700">c</text>
<text x="340.9" y="68.0" fill="#c9ccd3" font-weight="700">o</text>
<text x="350.3" y="68.0" fill="#c9ccd3" font-weight="700">m</text>
<text x="359.7" y="68.0" fill="#c9ccd3" font-weight="700">m</text>
<text x="369.1" y="68.0" fill="#c9ccd3" font-weight="700">i</text>
<text x="378.5" y="68.0" fill="#c9ccd3" font-weight="700">t</text>
<text x="387.9" y="68.0" fill="#c9ccd3" font-weight="700">t</text>
<text x="397.3" y="68.0" fill="#c9ccd3" font-weight="700">e</text>
<text x="406.7" y="68.0" fill="#c9ccd3" font-weight="700">d</text>
<text x="49.5" y="94.0" fill="#d7af5f">✎</text>
<text x="68.3" y="94.0" fill="#d7af5f">a</text>
<text x="77.7" y="94.0" fill="#d7af5f">d</text>
<text x="87.1" y="94.0" fill="#d7af5f">d</text>
<text x="105.9" y="94.0" fill="#d7af5f">a</text>
<text x="124.7" y="94.0" fill="#d7af5f">l</text>
<text x="134.1" y="94.0" fill="#d7af5f">i</text>
<text x="143.5" y="94.0" fill="#d7af5f">n</text>
<text x="152.9" y="94.0" fill="#d7af5f">e</text>
<text x="171.7" y="94.0" fill="#d7af5f">t</text>
<text x="181.1" y="94.0" fill="#d7af5f">o</text>
<text x="199.9" y="94.0" fill="#d7af5f">l</text>
<text x="209.3" y="94.0" fill="#d7af5f">o</text>
<text x="218.7" y="94.0" fill="#d7af5f">g</text>
<text x="228.1" y="94.0" fill="#d7af5f">i</text>
<text x="237.5" y="94.0" fill="#d7af5f">n</text>
<text x="246.9" y="94.0" fill="#d7af5f">.</text>
<text x="256.3" y="94.0" fill="#d7af5f">h</text>
<text x="265.7" y="94.0" fill="#d7af5f">t</text>
<text x="275.1" y="94.0" fill="#d7af5f">m</text>
<text x="284.5" y="94.0" fill="#d7af5f">l</text>
<text x="293.9" y="94.0" fill="#d7af5f">,</text>
<text x="312.7" y="94.0" fill="#d7af5f">d</text>
<text x="322.1" y="94.0" fill="#d7af5f">o</text>
<text x="331.5" y="94.0" fill="#d7af5f">n</text>
<text x="340.9" y="94.0" fill="#d7af5f">&#x27;</text>
<text x="350.3" y="94.0" fill="#d7af5f">t</text>
<text x="369.1" y="94.0" fill="#d7af5f">c</text>
<text x="378.5" y="94.0" fill="#d7af5f">o</text>
<text x="387.9" y="94.0" fill="#d7af5f">m</text>
<text x="397.3" y="94.0" fill="#d7af5f">m</text>
<text x="406.7" y="94.0" fill="#d7af5f">i</text>
<text x="416.1" y="94.0" fill="#d7af5f">t</text>
<text x="434.9" y="94.0" fill="#d7af5f">y</text>
<text x="444.3" y="94.0" fill="#d7af5f">e</text>
<text x="453.7" y="94.0" fill="#d7af5f">t</text>
<text x="49.5" y="120.0" fill="#65666c">$</text>
<text x="68.3" y="120.0" fill="#c9ccd3">g</text>
<text x="77.7" y="120.0" fill="#c9ccd3">i</text>
<text x="87.1" y="120.0" fill="#c9ccd3">t</text>
<text x="105.9" y="120.0" fill="#c9ccd3">s</text>
<text x="115.3" y="120.0" fill="#c9ccd3">t</text>
<text x="124.7" y="120.0" fill="#c9ccd3">a</text>
<text x="134.1" y="120.0" fill="#c9ccd3">t</text>
<text x="143.5" y="120.0" fill="#c9ccd3">u</text>
<text x="152.9" y="120.0" fill="#c9ccd3">s</text>
<text x="171.7" y="120.0" fill="#c9ccd3">-</text>
<text x="181.1" y="120.0" fill="#c9ccd3">-</text>
<text x="190.5" y="120.0" fill="#c9ccd3">s</text>
<text x="199.9" y="120.0" fill="#c9ccd3">h</text>
<text x="209.3" y="120.0" fill="#c9ccd3">o</text>
<text x="218.7" y="120.0" fill="#c9ccd3">r</text>
<text x="228.1" y="120.0" fill="#c9ccd3">t</text>
<text x="406.7" y="120.0" fill="#65666c">#</text>
<text x="434.9" y="120.0" fill="#65666c">M</text>
<text x="453.7" y="120.0" fill="#65666c">=</text>
<text x="472.5" y="120.0" fill="#65666c">m</text>
<text x="481.9" y="120.0" fill="#65666c">o</text>
<text x="491.3" y="120.0" fill="#65666c">d</text>
<text x="500.7" y="120.0" fill="#65666c">i</text>
<text x="510.1" y="120.0" fill="#65666c">f</text>
<text x="519.5" y="120.0" fill="#65666c">i</text>
<text x="528.9" y="120.0" fill="#65666c">e</text>
<text x="538.3" y="120.0" fill="#65666c">d</text>
<text x="547.7" y="120.0" fill="#65666c">,</text>
<text x="566.5" y="120.0" fill="#65666c">n</text>
<text x="575.9" y="120.0" fill="#65666c">o</text>
<text x="585.3" y="120.0" fill="#65666c">t</text>
<text x="604.1" y="120.0" fill="#65666c">c</text>
<text x="613.5" y="120.0" fill="#65666c">o</text>
<text x="622.9" y="120.0" fill="#65666c">m</text>
<text x="632.3" y="120.0" fill="#65666c">m</text>
<text x="641.7" y="120.0" fill="#65666c">i</text>
<text x="651.1" y="120.0" fill="#65666c">t</text>
<text x="660.5" y="120.0" fill="#65666c">t</text>
<text x="669.9" y="120.0" fill="#65666c">e</text>
<text x="679.3" y="120.0" fill="#65666c">d</text>
<text x="87.1" y="146.0" fill="#65666c">M</text>
<text x="105.9" y="146.0" fill="#65666c">l</text>
<text x="115.3" y="146.0" fill="#65666c">o</text>
<text x="124.7" y="146.0" fill="#65666c">g</text>
<text x="134.1" y="146.0" fill="#65666c">i</text>
<text x="143.5" y="146.0" fill="#65666c">n</text>
<text x="152.9" y="146.0" fill="#65666c">.</text>
<text x="162.3" y="146.0" fill="#65666c">h</text>
<text x="171.7" y="146.0" fill="#65666c">t</text>
<text x="181.1" y="146.0" fill="#65666c">m</text>
<text x="190.5" y="146.0" fill="#65666c">l</text>
<text x="49.5" y="172.0" fill="#65666c">$</text>
<text x="68.3" y="172.0" fill="#c9ccd3">g</text>
<text x="77.7" y="172.0" fill="#c9ccd3">i</text>
<text x="87.1" y="172.0" fill="#c9ccd3">t</text>
<text x="105.9" y="172.0" fill="#c9ccd3">d</text>
<text x="115.3" y="172.0" fill="#c9ccd3">i</text>
<text x="124.7" y="172.0" fill="#c9ccd3">f</text>
<text x="134.1" y="172.0" fill="#c9ccd3">f</text>
<text x="406.7" y="172.0" fill="#65666c">#</text>
<text x="425.5" y="172.0" fill="#65666c">t</text>
<text x="434.9" y="172.0" fill="#65666c">h</text>
<text x="444.3" y="172.0" fill="#65666c">e</text>
<text x="463.1" y="172.0" fill="#65666c">e</text>
<text x="472.5" y="172.0" fill="#65666c">x</text>
<text x="481.9" y="172.0" fill="#65666c">a</text>
<text x="491.3" y="172.0" fill="#65666c">c</text>
<text x="500.7" y="172.0" fill="#65666c">t</text>
<text x="519.5" y="172.0" fill="#65666c">l</text>
<text x="528.9" y="172.0" fill="#65666c">i</text>
<text x="538.3" y="172.0" fill="#65666c">n</text>
<text x="547.7" y="172.0" fill="#65666c">e</text>
<text x="557.1" y="172.0" fill="#65666c">s</text>
<text x="566.5" y="172.0" fill="#65666c">:</text>
<text x="585.3" y="172.0" fill="#65666c">+</text>
<text x="604.1" y="172.0" fill="#65666c">a</text>
<text x="613.5" y="172.0" fill="#65666c">d</text>
<text x="622.9" y="172.0" fill="#65666c">d</text>
<text x="632.3" y="172.0" fill="#65666c">e</text>
<text x="641.7" y="172.0" fill="#65666c">d</text>
<text x="651.1" y="172.0" fill="#65666c">,</text>
<text x="669.9" y="172.0" fill="#65666c">-</text>
<text x="688.7" y="172.0" fill="#65666c">r</text>
<text x="698.1" y="172.0" fill="#65666c">e</text>
<text x="707.5" y="172.0" fill="#65666c">m</text>
<text x="716.9" y="172.0" fill="#65666c">o</text>
<text x="726.3" y="172.0" fill="#65666c">v</text>
<text x="735.7" y="172.0" fill="#65666c">e</text>
<text x="745.1" y="172.0" fill="#65666c">d</text>
<text x="87.1" y="198.0" fill="#65666c">d</text>
<text x="96.5" y="198.0" fill="#65666c">i</text>
<text x="105.9" y="198.0" fill="#65666c">f</text>
<text x="115.3" y="198.0" fill="#65666c">f</text>
<text x="134.1" y="198.0" fill="#65666c">-</text>
<text x="143.5" y="198.0" fill="#65666c">-</text>
<text x="152.9" y="198.0" fill="#65666c">g</text>
<text x="162.3" y="198.0" fill="#65666c">i</text>
<text x="171.7" y="198.0" fill="#65666c">t</text>
<text x="190.5" y="198.0" fill="#65666c">a</text>
<text x="199.9" y="198.0" fill="#65666c">/</text>
<text x="209.3" y="198.0" fill="#65666c">l</text>
<text x="218.7" y="198.0" fill="#65666c">o</text>
<text x="228.1" y="198.0" fill="#65666c">g</text>
<text x="237.5" y="198.0" fill="#65666c">i</text>
<text x="246.9" y="198.0" fill="#65666c">n</text>
<text x="256.3" y="198.0" fill="#65666c">.</text>
<text x="265.7" y="198.0" fill="#65666c">h</text>
<text x="275.1" y="198.0" fill="#65666c">t</text>
<text x="284.5" y="198.0" fill="#65666c">m</text>
<text x="293.9" y="198.0" fill="#65666c">l</text>
<text x="312.7" y="198.0" fill="#65666c">b</text>
<text x="322.1" y="198.0" fill="#65666c">/</text>
<text x="331.5" y="198.0" fill="#65666c">l</text>
<text x="340.9" y="198.0" fill="#65666c">o</text>
<text x="350.3" y="198.0" fill="#65666c">g</text>
<text x="359.7" y="198.0" fill="#65666c">i</text>
<text x="369.1" y="198.0" fill="#65666c">n</text>
<text x="378.5" y="198.0" fill="#65666c">.</text>
<text x="387.9" y="198.0" fill="#65666c">h</text>
<text x="397.3" y="198.0" fill="#65666c">t</text>
<text x="406.7" y="198.0" fill="#65666c">m</text>
<text x="416.1" y="198.0" fill="#65666c">l</text>
<text x="87.1" y="224.0" fill="#65666c">i</text>
<text x="96.5" y="224.0" fill="#65666c">n</text>
<text x="105.9" y="224.0" fill="#65666c">d</text>
<text x="115.3" y="224.0" fill="#65666c">e</text>
<text x="124.7" y="224.0" fill="#65666c">x</text>
<text x="143.5" y="224.0" fill="#65666c">2</text>
<text x="152.9" y="224.0" fill="#65666c">1</text>
<text x="162.3" y="224.0" fill="#65666c">4</text>
<text x="171.7" y="224.0" fill="#65666c">0</text>
<text x="181.1" y="224.0" fill="#65666c">0</text>
<text x="190.5" y="224.0" fill="#65666c">b</text>
<text x="199.9" y="224.0" fill="#65666c">a</text>
<text x="209.3" y="224.0" fill="#65666c">.</text>
<text x="218.7" y="224.0" fill="#65666c">.</text>
<text x="228.1" y="224.0" fill="#65666c">7</text>
<text x="237.5" y="224.0" fill="#65666c">4</text>
<text x="246.9" y="224.0" fill="#65666c">f</text>
<text x="256.3" y="224.0" fill="#65666c">e</text>
<text x="265.7" y="224.0" fill="#65666c">f</text>
<text x="275.1" y="224.0" fill="#65666c">b</text>
<text x="284.5" y="224.0" fill="#65666c">0</text>
<text x="303.3" y="224.0" fill="#65666c">1</text>
<text x="312.7" y="224.0" fill="#65666c">0</text>
<text x="322.1" y="224.0" fill="#65666c">0</text>
<text x="331.5" y="224.0" fill="#65666c">6</text>
<text x="340.9" y="224.0" fill="#65666c">4</text>
<text x="350.3" y="224.0" fill="#65666c">4</text>
<text x="87.1" y="250.0" fill="#65666c">-</text>
<text x="96.5" y="250.0" fill="#65666c">-</text>
<text x="105.9" y="250.0" fill="#65666c">-</text>
<text x="124.7" y="250.0" fill="#65666c">a</text>
<text x="134.1" y="250.0" fill="#65666c">/</text>
<text x="143.5" y="250.0" fill="#65666c">l</text>
<text x="152.9" y="250.0" fill="#65666c">o</text>
<text x="162.3" y="250.0" fill="#65666c">g</text>
<text x="171.7" y="250.0" fill="#65666c">i</text>
<text x="181.1" y="250.0" fill="#65666c">n</text>
<text x="190.5" y="250.0" fill="#65666c">.</text>
<text x="199.9" y="250.0" fill="#65666c">h</text>
<text x="209.3" y="250.0" fill="#65666c">t</text>
<text x="218.7" y="250.0" fill="#65666c">m</text>
<text x="228.1" y="250.0" fill="#65666c">l</text>
<text x="87.1" y="276.0" fill="#65666c">+</text>
<text x="96.5" y="276.0" fill="#65666c">+</text>
<text x="105.9" y="276.0" fill="#65666c">+</text>
<text x="124.7" y="276.0" fill="#65666c">b</text>
<text x="134.1" y="276.0" fill="#65666c">/</text>
<text x="143.5" y="276.0" fill="#65666c">l</text>
<text x="152.9" y="276.0" fill="#65666c">o</text>
<text x="162.3" y="276.0" fill="#65666c">g</text>
<text x="171.7" y="276.0" fill="#65666c">i</text>
<text x="181.1" y="276.0" fill="#65666c">n</text>
<text x="190.5" y="276.0" fill="#65666c">.</text>
<text x="199.9" y="276.0" fill="#65666c">h</text>
<text x="209.3" y="276.0" fill="#65666c">t</text>
<text x="218.7" y="276.0" fill="#65666c">m</text>
<text x="228.1" y="276.0" fill="#65666c">l</text>
<text x="87.1" y="302.0" fill="#65666c">@</text>
<text x="96.5" y="302.0" fill="#65666c">@</text>
<text x="115.3" y="302.0" fill="#65666c">-</text>
<text x="124.7" y="302.0" fill="#65666c">1</text>
<text x="134.1" y="302.0" fill="#65666c">,</text>
<text x="143.5" y="302.0" fill="#65666c">2</text>
<text x="162.3" y="302.0" fill="#65666c">+</text>
<text x="171.7" y="302.0" fill="#65666c">1</text>
<text x="181.1" y="302.0" fill="#65666c">,</text>
<text x="190.5" y="302.0" fill="#65666c">3</text>
<text x="209.3" y="302.0" fill="#65666c">@</text>
<text x="218.7" y="302.0" fill="#65666c">@</text>
<text x="96.5" y="328.0" fill="#65666c">&lt;</text>
<text x="105.9" y="328.0" fill="#65666c">f</text>
<text x="115.3" y="328.0" fill="#65666c">o</text>
<text x="124.7" y="328.0" fill="#65666c">r</text>
<text x="134.1" y="328.0" fill="#65666c">m</text>
<text x="143.5" y="328.0" fill="#65666c">&gt;</text>
<text x="152.9" y="328.0" fill="#65666c">L</text>
<text x="162.3" y="328.0" fill="#65666c">o</text>
<text x="171.7" y="328.0" fill="#65666c">g</text>
<text x="190.5" y="328.0" fill="#65666c">i</text>
<text x="199.9" y="328.0" fill="#65666c">n</text>
<text x="209.3" y="328.0" fill="#65666c">&lt;</text>
<text x="218.7" y="328.0" fill="#65666c">/</text>
<text x="228.1" y="328.0" fill="#65666c">f</text>
<text x="237.5" y="328.0" fill="#65666c">o</text>
<text x="246.9" y="328.0" fill="#65666c">r</text>
<text x="256.3" y="328.0" fill="#65666c">m</text>
<text x="265.7" y="328.0" fill="#65666c">&gt;</text>
<text x="96.5" y="354.0" fill="#65666c">&lt;</text>
<text x="105.9" y="354.0" fill="#65666c">s</text>
<text x="115.3" y="354.0" fill="#65666c">c</text>
<text x="124.7" y="354.0" fill="#65666c">r</text>
<text x="134.1" y="354.0" fill="#65666c">i</text>
<text x="143.5" y="354.0" fill="#65666c">p</text>
<text x="152.9" y="354.0" fill="#65666c">t</text>
<text x="162.3" y="354.0" fill="#65666c">&gt;</text>
<text x="171.7" y="354.0" fill="#65666c">l</text>
<text x="181.1" y="354.0" fill="#65666c">o</text>
<text x="190.5" y="354.0" fill="#65666c">g</text>
<text x="199.9" y="354.0" fill="#65666c">i</text>
<text x="209.3" y="354.0" fill="#65666c">n</text>
<text x="218.7" y="354.0" fill="#65666c">(</text>
<text x="228.1" y="354.0" fill="#65666c">)</text>
<text x="237.5" y="354.0" fill="#65666c">&lt;</text>
<text x="246.9" y="354.0" fill="#65666c">/</text>
<text x="256.3" y="354.0" fill="#65666c">s</text>
<text x="265.7" y="354.0" fill="#65666c">c</text>
<text x="275.1" y="354.0" fill="#65666c">r</text>
<text x="284.5" y="354.0" fill="#65666c">i</text>
<text x="293.9" y="354.0" fill="#65666c">p</text>
<text x="303.3" y="354.0" fill="#65666c">t</text>
<text x="312.7" y="354.0" fill="#65666c">&gt;</text>
<text x="87.1" y="380.0" fill="#87d787">+</text>
<text x="96.5" y="380.0" fill="#87d787">&lt;</text>
<text x="105.9" y="380.0" fill="#87d787">p</text>
<text x="115.3" y="380.0" fill="#87d787">&gt;</text>
<text x="124.7" y="380.0" fill="#87d787">W</text>
<text x="134.1" y="380.0" fill="#87d787">r</text>
<text x="143.5" y="380.0" fill="#87d787">o</text>
<text x="152.9" y="380.0" fill="#87d787">n</text>
<text x="162.3" y="380.0" fill="#87d787">g</text>
<text x="181.1" y="380.0" fill="#87d787">p</text>
<text x="190.5" y="380.0" fill="#87d787">a</text>
<text x="199.9" y="380.0" fill="#87d787">s</text>
<text x="209.3" y="380.0" fill="#87d787">s</text>
<text x="218.7" y="380.0" fill="#87d787">w</text>
<text x="228.1" y="380.0" fill="#87d787">o</text>
<text x="237.5" y="380.0" fill="#87d787">r</text>
<text x="246.9" y="380.0" fill="#87d787">d</text>
<text x="256.3" y="380.0" fill="#87d787">&lt;</text>
<text x="265.7" y="380.0" fill="#87d787">/</text>
<text x="275.1" y="380.0" fill="#87d787">p</text>
<text x="284.5" y="380.0" fill="#87d787">&gt;</text>
<text x="171.7" y="432.0" fill="#5fafff">m</text>
<text x="181.1" y="432.0" fill="#5fafff">a</text>
<text x="190.5" y="432.0" fill="#5fafff">i</text>
<text x="199.9" y="432.0" fill="#5fafff">n</text>
<text x="171.7" y="458.0" fill="#d787d7" font-weight="700">f</text>
<text x="181.1" y="458.0" fill="#d787d7" font-weight="700">e</text>
<text x="190.5" y="458.0" fill="#d787d7" font-weight="700">a</text>
<text x="199.9" y="458.0" fill="#d787d7" font-weight="700">t</text>
<text x="209.3" y="458.0" fill="#d787d7" font-weight="700">/</text>
<text x="218.7" y="458.0" fill="#d787d7" font-weight="700">l</text>
<text x="228.1" y="458.0" fill="#d787d7" font-weight="700">o</text>
<text x="237.5" y="458.0" fill="#d787d7" font-weight="700">g</text>
<text x="246.9" y="458.0" fill="#d787d7" font-weight="700">i</text>
<text x="256.3" y="458.0" fill="#d787d7" font-weight="700">n</text>
<text x="275.1" y="458.0" fill="#87d787">+</text>
<text x="284.5" y="458.0" fill="#87d787">2</text>
<text x="303.3" y="458.0" fill="#d78787">−</text>
<text x="312.7" y="458.0" fill="#d78787">1</text>
<text x="331.5" y="458.0" fill="#d7af5f">✎</text>
<text x="340.9" y="458.0" fill="#d7af5f">1</text>
<text x="359.7" y="458.0" fill="#65666c">4</text>
<text x="369.1" y="458.0" fill="#65666c">h</text>
<text x="49.5" y="510.0" fill="#c9ccd3">✎</text>
<text x="58.9" y="510.0" fill="#c9ccd3">1</text>
<text x="77.7" y="510.0" fill="#c9ccd3">m</text>
<text x="87.1" y="510.0" fill="#c9ccd3">e</text>
<text x="96.5" y="510.0" fill="#c9ccd3">a</text>
<text x="105.9" y="510.0" fill="#c9ccd3">n</text>
<text x="115.3" y="510.0" fill="#c9ccd3">s</text>
<text x="134.1" y="510.0" fill="#c9ccd3">1</text>
<text x="152.9" y="510.0" fill="#c9ccd3">f</text>
<text x="162.3" y="510.0" fill="#c9ccd3">i</text>
<text x="171.7" y="510.0" fill="#c9ccd3">l</text>
<text x="181.1" y="510.0" fill="#c9ccd3">e</text>
<text x="199.9" y="510.0" fill="#c9ccd3">i</text>
<text x="209.3" y="510.0" fill="#c9ccd3">s</text>
<text x="228.1" y="510.0" fill="#c9ccd3">c</text>
<text x="237.5" y="510.0" fill="#c9ccd3">h</text>
<text x="246.9" y="510.0" fill="#c9ccd3">a</text>
<text x="256.3" y="510.0" fill="#c9ccd3">n</text>
<text x="265.7" y="510.0" fill="#c9ccd3">g</text>
<text x="275.1" y="510.0" fill="#c9ccd3">e</text>
<text x="284.5" y="510.0" fill="#c9ccd3">d</text>
<text x="303.3" y="510.0" fill="#c9ccd3">b</text>
<text x="312.7" y="510.0" fill="#c9ccd3">u</text>
<text x="322.1" y="510.0" fill="#c9ccd3">t</text>
<text x="340.9" y="510.0" fill="#c9ccd3">n</text>
<text x="350.3" y="510.0" fill="#c9ccd3">o</text>
<text x="359.7" y="510.0" fill="#c9ccd3">t</text>
<text x="378.5" y="510.0" fill="#c9ccd3">c</text>
<text x="387.9" y="510.0" fill="#c9ccd3">o</text>
<text x="397.3" y="510.0" fill="#c9ccd3">m</text>
<text x="406.7" y="510.0" fill="#c9ccd3">m</text>
<text x="416.1" y="510.0" fill="#c9ccd3">i</text>
<text x="425.5" y="510.0" fill="#c9ccd3">t</text>
<text x="434.9" y="510.0" fill="#c9ccd3">t</text>
<text x="444.3" y="510.0" fill="#c9ccd3">e</text>
<text x="453.7" y="510.0" fill="#c9ccd3">d</text>
<text x="463.1" y="510.0" fill="#c9ccd3">.</text>
<text x="481.9" y="510.0" fill="#c9ccd3">g</text>
<text x="491.3" y="510.0" fill="#c9ccd3">i</text>
<text x="500.7" y="510.0" fill="#c9ccd3">t</text>
<text x="519.5" y="510.0" fill="#c9ccd3">s</text>
<text x="528.9" y="510.0" fill="#c9ccd3">t</text>
<text x="538.3" y="510.0" fill="#c9ccd3">a</text>
<text x="547.7" y="510.0" fill="#c9ccd3">t</text>
<text x="557.1" y="510.0" fill="#c9ccd3">u</text>
<text x="566.5" y="510.0" fill="#c9ccd3">s</text>
<text x="585.3" y="510.0" fill="#c9ccd3">s</text>
<text x="594.7" y="510.0" fill="#c9ccd3">a</text>
<text x="604.1" y="510.0" fill="#c9ccd3">y</text>
<text x="613.5" y="510.0" fill="#c9ccd3">s</text>
<text x="632.3" y="510.0" fill="#c9ccd3">w</text>
<text x="641.7" y="510.0" fill="#c9ccd3">h</text>
<text x="651.1" y="510.0" fill="#c9ccd3">i</text>
<text x="660.5" y="510.0" fill="#c9ccd3">c</text>
<text x="669.9" y="510.0" fill="#c9ccd3">h</text>
<text x="688.7" y="510.0" fill="#c9ccd3">f</text>
<text x="698.1" y="510.0" fill="#c9ccd3">i</text>
<text x="707.5" y="510.0" fill="#c9ccd3">l</text>
<text x="716.9" y="510.0" fill="#c9ccd3">e</text>
<text x="726.3" y="510.0" fill="#c9ccd3">s</text>
<text x="735.7" y="510.0" fill="#c9ccd3">,</text>
<text x="754.5" y="510.0" fill="#c9ccd3">g</text>
<text x="763.9" y="510.0" fill="#c9ccd3">i</text>
<text x="773.3" y="510.0" fill="#c9ccd3">t</text>
<text x="792.1" y="510.0" fill="#c9ccd3">d</text>
<text x="801.5" y="510.0" fill="#c9ccd3">i</text>
<text x="810.9" y="510.0" fill="#c9ccd3">f</text>
<text x="820.3" y="510.0" fill="#c9ccd3">f</text>
<text x="839.1" y="510.0" fill="#c9ccd3">s</text>
<text x="848.5" y="510.0" fill="#c9ccd3">a</text>
<text x="857.9" y="510.0" fill="#c9ccd3">y</text>
<text x="867.3" y="510.0" fill="#c9ccd3">s</text>
<text x="886.1" y="510.0" fill="#c9ccd3">w</text>
<text x="895.5" y="510.0" fill="#c9ccd3">h</text>
<text x="904.9" y="510.0" fill="#c9ccd3">a</text>
<text x="914.3" y="510.0" fill="#c9ccd3">t</text>
<text x="933.1" y="510.0" fill="#c9ccd3">c</text>
<text x="942.5" y="510.0" fill="#c9ccd3">h</text>
<text x="951.9" y="510.0" fill="#c9ccd3">a</text>
<text x="961.3" y="510.0" fill="#c9ccd3">n</text>
<text x="970.7" y="510.0" fill="#c9ccd3">g</text>
<text x="980.1" y="510.0" fill="#c9ccd3">e</text>
<text x="989.5" y="510.0" fill="#c9ccd3">d</text>
<text x="998.9" y="510.0" fill="#c9ccd3">.</text>
<text x="49.5" y="536.0" fill="#c9ccd3">G</text>
<text x="58.9" y="536.0" fill="#c9ccd3">o</text>
<text x="68.3" y="536.0" fill="#c9ccd3">o</text>
<text x="77.7" y="536.0" fill="#c9ccd3">d</text>
<text x="96.5" y="536.0" fill="#c9ccd3">h</text>
<text x="105.9" y="536.0" fill="#c9ccd3">a</text>
<text x="115.3" y="536.0" fill="#c9ccd3">b</text>
<text x="124.7" y="536.0" fill="#c9ccd3">i</text>
<text x="134.1" y="536.0" fill="#c9ccd3">t</text>
<text x="143.5" y="536.0" fill="#c9ccd3">:</text>
<text x="162.3" y="536.0" fill="#c9ccd3">g</text>
<text x="171.7" y="536.0" fill="#c9ccd3">l</text>
<text x="181.1" y="536.0" fill="#c9ccd3">a</text>
<text x="190.5" y="536.0" fill="#c9ccd3">n</text>
<text x="199.9" y="536.0" fill="#c9ccd3">c</text>
<text x="209.3" y="536.0" fill="#c9ccd3">e</text>
<text x="228.1" y="536.0" fill="#c9ccd3">a</text>
<text x="237.5" y="536.0" fill="#c9ccd3">t</text>
<text x="256.3" y="536.0" fill="#c9ccd3">t</text>
<text x="265.7" y="536.0" fill="#c9ccd3">h</text>
<text x="275.1" y="536.0" fill="#c9ccd3">e</text>
<text x="293.9" y="536.0" fill="#c9ccd3">d</text>
<text x="303.3" y="536.0" fill="#c9ccd3">i</text>
<text x="312.7" y="536.0" fill="#c9ccd3">f</text>
<text x="322.1" y="536.0" fill="#c9ccd3">f</text>
<text x="340.9" y="536.0" fill="#c9ccd3">b</text>
<text x="350.3" y="536.0" fill="#c9ccd3">e</text>
<text x="359.7" y="536.0" fill="#c9ccd3">f</text>
<text x="369.1" y="536.0" fill="#c9ccd3">o</text>
<text x="378.5" y="536.0" fill="#c9ccd3">r</text>
<text x="387.9" y="536.0" fill="#c9ccd3">e</text>
<text x="406.7" y="536.0" fill="#c9ccd3">c</text>
<text x="416.1" y="536.0" fill="#c9ccd3">o</text>
<text x="425.5" y="536.0" fill="#c9ccd3">m</text>
<text x="434.9" y="536.0" fill="#c9ccd3">m</text>
<text x="444.3" y="536.0" fill="#c9ccd3">i</text>
<text x="453.7" y="536.0" fill="#c9ccd3">t</text>
<text x="463.1" y="536.0" fill="#c9ccd3">t</text>
<text x="472.5" y="536.0" fill="#c9ccd3">i</text>
<text x="481.9" y="536.0" fill="#c9ccd3">n</text>
<text x="491.3" y="536.0" fill="#c9ccd3">g</text>
<text x="500.7" y="536.0" fill="#c9ccd3">,</text>
<text x="519.5" y="536.0" fill="#c9ccd3">s</text>
<text x="528.9" y="536.0" fill="#c9ccd3">o</text>
<text x="547.7" y="536.0" fill="#c9ccd3">n</text>
<text x="557.1" y="536.0" fill="#c9ccd3">o</text>
<text x="566.5" y="536.0" fill="#c9ccd3">t</text>
<text x="575.9" y="536.0" fill="#c9ccd3">h</text>
<text x="585.3" y="536.0" fill="#c9ccd3">i</text>
<text x="594.7" y="536.0" fill="#c9ccd3">n</text>
<text x="604.1" y="536.0" fill="#c9ccd3">g</text>
<text x="622.9" y="536.0" fill="#c9ccd3">u</text>
<text x="632.3" y="536.0" fill="#c9ccd3">n</text>
<text x="641.7" y="536.0" fill="#c9ccd3">i</text>
<text x="651.1" y="536.0" fill="#c9ccd3">n</text>
<text x="660.5" y="536.0" fill="#c9ccd3">t</text>
<text x="669.9" y="536.0" fill="#c9ccd3">e</text>
<text x="679.3" y="536.0" fill="#c9ccd3">n</text>
<text x="688.7" y="536.0" fill="#c9ccd3">d</text>
<text x="698.1" y="536.0" fill="#c9ccd3">e</text>
<text x="707.5" y="536.0" fill="#c9ccd3">d</text>
<text x="726.3" y="536.0" fill="#c9ccd3">s</text>
<text x="735.7" y="536.0" fill="#c9ccd3">n</text>
<text x="745.1" y="536.0" fill="#c9ccd3">e</text>
<text x="754.5" y="536.0" fill="#c9ccd3">a</text>
<text x="763.9" y="536.0" fill="#c9ccd3">k</text>
<text x="773.3" y="536.0" fill="#c9ccd3">s</text>
<text x="792.1" y="536.0" fill="#c9ccd3">i</text>
<text x="801.5" y="536.0" fill="#c9ccd3">n</text>
<text x="810.9" y="536.0" fill="#c9ccd3">.</text>
</g>
</svg>